<mxfile host="app.diagrams.net" agent="Mozilla/5.0 (Windows NT 10.0; Win64; x64) AppleWebKit/537.36 (KHTML, like Gecko) Chrome/140.0.0.0 Safari/537.36" version="28.2.3" pages="7">
  <diagram name="Trang-1" id="U2GpQeHUhaBZflC6nnnK">
    <mxGraphModel dx="1042" dy="562" grid="1" gridSize="10" guides="1" tooltips="1" connect="1" arrows="1" fold="1" page="1" pageScale="1" pageWidth="827" pageHeight="1169" math="0" shadow="0">
      <root>
        <mxCell id="0" />
        <mxCell id="1" parent="0" />
        <mxCell id="RBuVKCxglMsY3zYDB0A1-16" style="edgeStyle=orthogonalEdgeStyle;rounded=0;orthogonalLoop=1;jettySize=auto;html=1;entryX=0.5;entryY=0;entryDx=0;entryDy=0;" edge="1" parent="1" source="RBuVKCxglMsY3zYDB0A1-1" target="RBuVKCxglMsY3zYDB0A1-3">
          <mxGeometry relative="1" as="geometry" />
        </mxCell>
        <mxCell id="RBuVKCxglMsY3zYDB0A1-1" value="bắt đầu" style="ellipse;whiteSpace=wrap;html=1;" vertex="1" parent="1">
          <mxGeometry x="330" y="20" width="120" height="80" as="geometry" />
        </mxCell>
        <mxCell id="RBuVKCxglMsY3zYDB0A1-18" style="edgeStyle=orthogonalEdgeStyle;rounded=0;orthogonalLoop=1;jettySize=auto;html=1;exitX=0.5;exitY=1;exitDx=0;exitDy=0;entryX=0.5;entryY=0;entryDx=0;entryDy=0;" edge="1" parent="1" source="RBuVKCxglMsY3zYDB0A1-3" target="RBuVKCxglMsY3zYDB0A1-17">
          <mxGeometry relative="1" as="geometry" />
        </mxCell>
        <mxCell id="RBuVKCxglMsY3zYDB0A1-3" value="Nhập món ăn" style="shape=parallelogram;perimeter=parallelogramPerimeter;whiteSpace=wrap;html=1;fixedSize=1;" vertex="1" parent="1">
          <mxGeometry x="330" y="140" width="120" height="60" as="geometry" />
        </mxCell>
        <mxCell id="RBuVKCxglMsY3zYDB0A1-27" style="edgeStyle=orthogonalEdgeStyle;rounded=0;orthogonalLoop=1;jettySize=auto;html=1;" edge="1" parent="1" source="RBuVKCxglMsY3zYDB0A1-5">
          <mxGeometry relative="1" as="geometry">
            <mxPoint x="474" y="630" as="targetPoint" />
          </mxGeometry>
        </mxCell>
        <mxCell id="RBuVKCxglMsY3zYDB0A1-5" value="giao hàng" style="rounded=1;whiteSpace=wrap;html=1;" vertex="1" parent="1">
          <mxGeometry x="414" y="525" width="120" height="60" as="geometry" />
        </mxCell>
        <mxCell id="RBuVKCxglMsY3zYDB0A1-26" style="edgeStyle=orthogonalEdgeStyle;rounded=0;orthogonalLoop=1;jettySize=auto;html=1;" edge="1" parent="1" source="RBuVKCxglMsY3zYDB0A1-13">
          <mxGeometry relative="1" as="geometry">
            <mxPoint x="474" y="530" as="targetPoint" />
          </mxGeometry>
        </mxCell>
        <mxCell id="RBuVKCxglMsY3zYDB0A1-13" value="tạo đơn hàng" style="rounded=1;whiteSpace=wrap;html=1;" vertex="1" parent="1">
          <mxGeometry x="414" y="410" width="120" height="70" as="geometry" />
        </mxCell>
        <mxCell id="RBuVKCxglMsY3zYDB0A1-19" style="edgeStyle=orthogonalEdgeStyle;rounded=0;orthogonalLoop=1;jettySize=auto;html=1;" edge="1" parent="1" source="RBuVKCxglMsY3zYDB0A1-17">
          <mxGeometry relative="1" as="geometry">
            <mxPoint x="260" y="420" as="targetPoint" />
          </mxGeometry>
        </mxCell>
        <mxCell id="RBuVKCxglMsY3zYDB0A1-21" value="không" style="edgeLabel;html=1;align=center;verticalAlign=middle;resizable=0;points=[];" vertex="1" connectable="0" parent="RBuVKCxglMsY3zYDB0A1-19">
          <mxGeometry x="0.4718" y="3" relative="1" as="geometry">
            <mxPoint as="offset" />
          </mxGeometry>
        </mxCell>
        <mxCell id="RBuVKCxglMsY3zYDB0A1-23" style="edgeStyle=orthogonalEdgeStyle;rounded=0;orthogonalLoop=1;jettySize=auto;html=1;" edge="1" parent="1" source="RBuVKCxglMsY3zYDB0A1-17">
          <mxGeometry relative="1" as="geometry">
            <mxPoint x="480" y="410" as="targetPoint" />
          </mxGeometry>
        </mxCell>
        <mxCell id="RBuVKCxglMsY3zYDB0A1-25" value="Có" style="edgeLabel;html=1;align=center;verticalAlign=middle;resizable=0;points=[];" vertex="1" connectable="0" parent="RBuVKCxglMsY3zYDB0A1-23">
          <mxGeometry x="0.395" y="1" relative="1" as="geometry">
            <mxPoint as="offset" />
          </mxGeometry>
        </mxCell>
        <mxCell id="RBuVKCxglMsY3zYDB0A1-17" value="món có còn không?" style="rhombus;whiteSpace=wrap;html=1;" vertex="1" parent="1">
          <mxGeometry x="350" y="240" width="80" height="80" as="geometry" />
        </mxCell>
        <mxCell id="RBuVKCxglMsY3zYDB0A1-22" style="edgeStyle=orthogonalEdgeStyle;rounded=0;orthogonalLoop=1;jettySize=auto;html=1;entryX=0;entryY=0.5;entryDx=0;entryDy=0;" edge="1" parent="1" source="RBuVKCxglMsY3zYDB0A1-20" target="RBuVKCxglMsY3zYDB0A1-3">
          <mxGeometry relative="1" as="geometry">
            <Array as="points">
              <mxPoint x="140" y="450" />
              <mxPoint x="140" y="170" />
            </Array>
          </mxGeometry>
        </mxCell>
        <mxCell id="RBuVKCxglMsY3zYDB0A1-20" value="báo lỗi" style="shape=parallelogram;perimeter=parallelogramPerimeter;whiteSpace=wrap;html=1;fixedSize=1;" vertex="1" parent="1">
          <mxGeometry x="200" y="420" width="120" height="60" as="geometry" />
        </mxCell>
        <mxCell id="RBuVKCxglMsY3zYDB0A1-29" style="edgeStyle=orthogonalEdgeStyle;rounded=0;orthogonalLoop=1;jettySize=auto;html=1;" edge="1" parent="1" source="RBuVKCxglMsY3zYDB0A1-28">
          <mxGeometry relative="1" as="geometry">
            <mxPoint x="340" y="790" as="targetPoint" />
          </mxGeometry>
        </mxCell>
        <mxCell id="RBuVKCxglMsY3zYDB0A1-32" value="có" style="edgeLabel;html=1;align=center;verticalAlign=middle;resizable=0;points=[];" vertex="1" connectable="0" parent="RBuVKCxglMsY3zYDB0A1-29">
          <mxGeometry x="0.4606" y="-4" relative="1" as="geometry">
            <mxPoint as="offset" />
          </mxGeometry>
        </mxCell>
        <mxCell id="RBuVKCxglMsY3zYDB0A1-30" style="edgeStyle=orthogonalEdgeStyle;rounded=0;orthogonalLoop=1;jettySize=auto;html=1;" edge="1" parent="1" source="RBuVKCxglMsY3zYDB0A1-28">
          <mxGeometry relative="1" as="geometry">
            <mxPoint x="620" y="790" as="targetPoint" />
          </mxGeometry>
        </mxCell>
        <mxCell id="RBuVKCxglMsY3zYDB0A1-36" value="Không" style="edgeLabel;html=1;align=center;verticalAlign=middle;resizable=0;points=[];" vertex="1" connectable="0" parent="RBuVKCxglMsY3zYDB0A1-30">
          <mxGeometry x="0.4648" y="2" relative="1" as="geometry">
            <mxPoint as="offset" />
          </mxGeometry>
        </mxCell>
        <mxCell id="RBuVKCxglMsY3zYDB0A1-28" value="Giao thành công" style="rhombus;whiteSpace=wrap;html=1;" vertex="1" parent="1">
          <mxGeometry x="434" y="630" width="80" height="80" as="geometry" />
        </mxCell>
        <mxCell id="RBuVKCxglMsY3zYDB0A1-31" value="báo khách nhận món" style="shape=parallelogram;perimeter=parallelogramPerimeter;whiteSpace=wrap;html=1;fixedSize=1;" vertex="1" parent="1">
          <mxGeometry x="280" y="790" width="120" height="60" as="geometry" />
        </mxCell>
        <mxCell id="RBuVKCxglMsY3zYDB0A1-40" style="edgeStyle=orthogonalEdgeStyle;rounded=0;orthogonalLoop=1;jettySize=auto;html=1;exitX=0.5;exitY=1;exitDx=0;exitDy=0;entryX=1;entryY=0.5;entryDx=0;entryDy=0;" edge="1" parent="1" source="RBuVKCxglMsY3zYDB0A1-35" target="RBuVKCxglMsY3zYDB0A1-39">
          <mxGeometry relative="1" as="geometry" />
        </mxCell>
        <mxCell id="RBuVKCxglMsY3zYDB0A1-35" value="hoàn tiền" style="rounded=1;whiteSpace=wrap;html=1;" vertex="1" parent="1">
          <mxGeometry x="550" y="790" width="120" height="60" as="geometry" />
        </mxCell>
        <mxCell id="RBuVKCxglMsY3zYDB0A1-39" value="kết thúc" style="ellipse;whiteSpace=wrap;html=1;" vertex="1" parent="1">
          <mxGeometry x="414" y="890" width="120" height="80" as="geometry" />
        </mxCell>
        <mxCell id="RBuVKCxglMsY3zYDB0A1-41" style="edgeStyle=orthogonalEdgeStyle;rounded=0;orthogonalLoop=1;jettySize=auto;html=1;entryX=0.02;entryY=0.608;entryDx=0;entryDy=0;entryPerimeter=0;" edge="1" parent="1" source="RBuVKCxglMsY3zYDB0A1-31" target="RBuVKCxglMsY3zYDB0A1-39">
          <mxGeometry relative="1" as="geometry">
            <Array as="points">
              <mxPoint x="330" y="930" />
              <mxPoint x="416" y="930" />
            </Array>
          </mxGeometry>
        </mxCell>
      </root>
    </mxGraphModel>
  </diagram>
  <diagram id="RfzlrEOZqH9ivdiAPpr5" name="Trang-2">
    <mxGraphModel dx="1042" dy="562" grid="1" gridSize="10" guides="1" tooltips="1" connect="1" arrows="1" fold="1" page="1" pageScale="1" pageWidth="827" pageHeight="1169" math="0" shadow="0">
      <root>
        <mxCell id="0" />
        <mxCell id="1" parent="0" />
        <mxCell id="1-_zK1ADI0IFuBD-mPtH-3" style="edgeStyle=orthogonalEdgeStyle;rounded=0;orthogonalLoop=1;jettySize=auto;html=1;" edge="1" parent="1" source="1-_zK1ADI0IFuBD-mPtH-1">
          <mxGeometry relative="1" as="geometry">
            <mxPoint x="400" y="140" as="targetPoint" />
          </mxGeometry>
        </mxCell>
        <mxCell id="1-_zK1ADI0IFuBD-mPtH-1" value="bắt đầu" style="ellipse;whiteSpace=wrap;html=1;" vertex="1" parent="1">
          <mxGeometry x="340" y="20" width="120" height="80" as="geometry" />
        </mxCell>
        <mxCell id="1-_zK1ADI0IFuBD-mPtH-5" style="edgeStyle=orthogonalEdgeStyle;rounded=0;orthogonalLoop=1;jettySize=auto;html=1;entryX=0.5;entryY=0;entryDx=0;entryDy=0;" edge="1" parent="1" source="1-_zK1ADI0IFuBD-mPtH-2" target="1-_zK1ADI0IFuBD-mPtH-4">
          <mxGeometry relative="1" as="geometry" />
        </mxCell>
        <mxCell id="1-_zK1ADI0IFuBD-mPtH-2" value="vào cửa hàng" style="rounded=1;whiteSpace=wrap;html=1;" vertex="1" parent="1">
          <mxGeometry x="340" y="140" width="120" height="60" as="geometry" />
        </mxCell>
        <mxCell id="1-_zK1ADI0IFuBD-mPtH-7" style="edgeStyle=orthogonalEdgeStyle;rounded=0;orthogonalLoop=1;jettySize=auto;html=1;entryX=0.5;entryY=0;entryDx=0;entryDy=0;" edge="1" parent="1" source="1-_zK1ADI0IFuBD-mPtH-4" target="1-_zK1ADI0IFuBD-mPtH-6">
          <mxGeometry relative="1" as="geometry" />
        </mxCell>
        <mxCell id="1-_zK1ADI0IFuBD-mPtH-4" value="tìm kiếm món đồ" style="shape=parallelogram;perimeter=parallelogramPerimeter;whiteSpace=wrap;html=1;fixedSize=1;" vertex="1" parent="1">
          <mxGeometry x="340" y="240" width="120" height="60" as="geometry" />
        </mxCell>
        <mxCell id="1-_zK1ADI0IFuBD-mPtH-8" style="edgeStyle=orthogonalEdgeStyle;rounded=0;orthogonalLoop=1;jettySize=auto;html=1;" edge="1" parent="1" source="1-_zK1ADI0IFuBD-mPtH-6">
          <mxGeometry relative="1" as="geometry">
            <mxPoint x="250" y="490" as="targetPoint" />
          </mxGeometry>
        </mxCell>
        <mxCell id="1-_zK1ADI0IFuBD-mPtH-9" value="có" style="edgeLabel;html=1;align=center;verticalAlign=middle;resizable=0;points=[];" vertex="1" connectable="0" parent="1-_zK1ADI0IFuBD-mPtH-8">
          <mxGeometry x="0.4927" relative="1" as="geometry">
            <mxPoint as="offset" />
          </mxGeometry>
        </mxCell>
        <mxCell id="1-_zK1ADI0IFuBD-mPtH-10" style="edgeStyle=orthogonalEdgeStyle;rounded=0;orthogonalLoop=1;jettySize=auto;html=1;" edge="1" parent="1" source="1-_zK1ADI0IFuBD-mPtH-6">
          <mxGeometry relative="1" as="geometry">
            <mxPoint x="530" y="490" as="targetPoint" />
          </mxGeometry>
        </mxCell>
        <mxCell id="1-_zK1ADI0IFuBD-mPtH-11" value="không" style="edgeLabel;html=1;align=center;verticalAlign=middle;resizable=0;points=[];" vertex="1" connectable="0" parent="1-_zK1ADI0IFuBD-mPtH-10">
          <mxGeometry x="0.3507" relative="1" as="geometry">
            <mxPoint as="offset" />
          </mxGeometry>
        </mxCell>
        <mxCell id="1-_zK1ADI0IFuBD-mPtH-6" value="món có trong cửa hàng không" style="rhombus;whiteSpace=wrap;html=1;" vertex="1" parent="1">
          <mxGeometry x="350" y="340" width="100" height="100" as="geometry" />
        </mxCell>
        <mxCell id="1-_zK1ADI0IFuBD-mPtH-13" style="edgeStyle=orthogonalEdgeStyle;rounded=0;orthogonalLoop=1;jettySize=auto;html=1;entryX=-0.013;entryY=0.588;entryDx=0;entryDy=0;entryPerimeter=0;" edge="1" parent="1" source="1-_zK1ADI0IFuBD-mPtH-12" target="1-_zK1ADI0IFuBD-mPtH-14">
          <mxGeometry relative="1" as="geometry">
            <mxPoint x="250" y="890" as="targetPoint" />
            <Array as="points">
              <mxPoint x="250" y="897" />
            </Array>
          </mxGeometry>
        </mxCell>
        <mxCell id="1-_zK1ADI0IFuBD-mPtH-12" value="mua món đồ" style="rounded=1;whiteSpace=wrap;html=1;" vertex="1" parent="1">
          <mxGeometry x="190" y="490" width="120" height="60" as="geometry" />
        </mxCell>
        <mxCell id="1-_zK1ADI0IFuBD-mPtH-14" value="kết thúc" style="ellipse;whiteSpace=wrap;html=1;" vertex="1" parent="1">
          <mxGeometry x="330" y="850" width="120" height="80" as="geometry" />
        </mxCell>
        <mxCell id="1-_zK1ADI0IFuBD-mPtH-16" style="edgeStyle=orthogonalEdgeStyle;rounded=0;orthogonalLoop=1;jettySize=auto;html=1;" edge="1" parent="1" source="1-_zK1ADI0IFuBD-mPtH-15">
          <mxGeometry relative="1" as="geometry">
            <mxPoint x="640" y="600" as="targetPoint" />
            <Array as="points">
              <mxPoint x="640" y="540" />
            </Array>
          </mxGeometry>
        </mxCell>
        <mxCell id="1-_zK1ADI0IFuBD-mPtH-18" value="khong" style="edgeLabel;html=1;align=center;verticalAlign=middle;resizable=0;points=[];" vertex="1" connectable="0" parent="1-_zK1ADI0IFuBD-mPtH-16">
          <mxGeometry x="0.4667" y="1" relative="1" as="geometry">
            <mxPoint as="offset" />
          </mxGeometry>
        </mxCell>
        <mxCell id="1-_zK1ADI0IFuBD-mPtH-17" style="edgeStyle=orthogonalEdgeStyle;rounded=0;orthogonalLoop=1;jettySize=auto;html=1;" edge="1" parent="1" source="1-_zK1ADI0IFuBD-mPtH-15">
          <mxGeometry relative="1" as="geometry">
            <mxPoint x="430" y="600" as="targetPoint" />
          </mxGeometry>
        </mxCell>
        <mxCell id="1-_zK1ADI0IFuBD-mPtH-19" value="có" style="edgeLabel;html=1;align=center;verticalAlign=middle;resizable=0;points=[];" vertex="1" connectable="0" parent="1-_zK1ADI0IFuBD-mPtH-17">
          <mxGeometry x="0.2332" y="-2" relative="1" as="geometry">
            <mxPoint as="offset" />
          </mxGeometry>
        </mxCell>
        <mxCell id="1-_zK1ADI0IFuBD-mPtH-15" value="món có trong cửa hàng không" style="rhombus;whiteSpace=wrap;html=1;" vertex="1" parent="1">
          <mxGeometry x="480" y="490" width="100" height="100" as="geometry" />
        </mxCell>
        <mxCell id="1-_zK1ADI0IFuBD-mPtH-21" style="edgeStyle=orthogonalEdgeStyle;rounded=0;orthogonalLoop=1;jettySize=auto;html=1;" edge="1" parent="1" source="1-_zK1ADI0IFuBD-mPtH-20" target="1-_zK1ADI0IFuBD-mPtH-14">
          <mxGeometry relative="1" as="geometry">
            <Array as="points">
              <mxPoint x="390" y="700" />
              <mxPoint x="390" y="700" />
            </Array>
          </mxGeometry>
        </mxCell>
        <mxCell id="1-_zK1ADI0IFuBD-mPtH-20" value="mua món đồ" style="rounded=1;whiteSpace=wrap;html=1;" vertex="1" parent="1">
          <mxGeometry x="340" y="600" width="120" height="60" as="geometry" />
        </mxCell>
        <mxCell id="1-_zK1ADI0IFuBD-mPtH-23" style="edgeStyle=orthogonalEdgeStyle;rounded=0;orthogonalLoop=1;jettySize=auto;html=1;entryX=1;entryY=0.5;entryDx=0;entryDy=0;" edge="1" parent="1" source="1-_zK1ADI0IFuBD-mPtH-22" target="1-_zK1ADI0IFuBD-mPtH-14">
          <mxGeometry relative="1" as="geometry" />
        </mxCell>
        <mxCell id="1-_zK1ADI0IFuBD-mPtH-22" value="rời khỏi cửa hàng" style="rounded=1;whiteSpace=wrap;html=1;" vertex="1" parent="1">
          <mxGeometry x="580" y="600" width="120" height="70" as="geometry" />
        </mxCell>
      </root>
    </mxGraphModel>
  </diagram>
  <diagram id="1p1mU8ABxWlHdiOd8yLz" name="Trang-3">
    <mxGraphModel dx="1042" dy="562" grid="1" gridSize="10" guides="1" tooltips="1" connect="1" arrows="1" fold="1" page="1" pageScale="1" pageWidth="827" pageHeight="1169" math="0" shadow="0">
      <root>
        <mxCell id="0" />
        <mxCell id="1" parent="0" />
        <mxCell id="g85zR57vtpFId2s-BlCn-6" style="edgeStyle=orthogonalEdgeStyle;rounded=0;orthogonalLoop=1;jettySize=auto;html=1;exitX=0.5;exitY=1;exitDx=0;exitDy=0;entryX=0.5;entryY=0;entryDx=0;entryDy=0;" edge="1" parent="1" source="g85zR57vtpFId2s-BlCn-1" target="g85zR57vtpFId2s-BlCn-5">
          <mxGeometry relative="1" as="geometry" />
        </mxCell>
        <mxCell id="g85zR57vtpFId2s-BlCn-1" value="bắt đầu" style="ellipse;whiteSpace=wrap;html=1;" vertex="1" parent="1">
          <mxGeometry x="350" y="50" width="120" height="80" as="geometry" />
        </mxCell>
        <mxCell id="g85zR57vtpFId2s-BlCn-3" value="kết thúc" style="ellipse;whiteSpace=wrap;html=1;" vertex="1" parent="1">
          <mxGeometry x="354" y="660" width="120" height="80" as="geometry" />
        </mxCell>
        <mxCell id="g85zR57vtpFId2s-BlCn-8" style="edgeStyle=orthogonalEdgeStyle;rounded=0;orthogonalLoop=1;jettySize=auto;html=1;entryX=0.5;entryY=0;entryDx=0;entryDy=0;" edge="1" parent="1" source="g85zR57vtpFId2s-BlCn-5" target="g85zR57vtpFId2s-BlCn-7">
          <mxGeometry relative="1" as="geometry" />
        </mxCell>
        <mxCell id="g85zR57vtpFId2s-BlCn-5" value="nhập thông tin cá nhân" style="shape=parallelogram;perimeter=parallelogramPerimeter;whiteSpace=wrap;html=1;fixedSize=1;" vertex="1" parent="1">
          <mxGeometry x="350" y="170" width="120" height="60" as="geometry" />
        </mxCell>
        <mxCell id="g85zR57vtpFId2s-BlCn-10" style="edgeStyle=orthogonalEdgeStyle;rounded=0;orthogonalLoop=1;jettySize=auto;html=1;entryX=0.5;entryY=0;entryDx=0;entryDy=0;" edge="1" parent="1" source="g85zR57vtpFId2s-BlCn-7" target="g85zR57vtpFId2s-BlCn-9">
          <mxGeometry relative="1" as="geometry" />
        </mxCell>
        <mxCell id="g85zR57vtpFId2s-BlCn-7" value="hệ thống kiểm tra thông tin" style="rounded=1;whiteSpace=wrap;html=1;" vertex="1" parent="1">
          <mxGeometry x="350" y="280" width="120" height="60" as="geometry" />
        </mxCell>
        <mxCell id="g85zR57vtpFId2s-BlCn-11" style="edgeStyle=orthogonalEdgeStyle;rounded=0;orthogonalLoop=1;jettySize=auto;html=1;" edge="1" parent="1" source="g85zR57vtpFId2s-BlCn-9">
          <mxGeometry relative="1" as="geometry">
            <mxPoint x="410" y="540" as="targetPoint" />
          </mxGeometry>
        </mxCell>
        <mxCell id="g85zR57vtpFId2s-BlCn-12" value="có" style="edgeLabel;html=1;align=center;verticalAlign=middle;resizable=0;points=[];" vertex="1" connectable="0" parent="g85zR57vtpFId2s-BlCn-11">
          <mxGeometry x="-0.1951" relative="1" as="geometry">
            <mxPoint as="offset" />
          </mxGeometry>
        </mxCell>
        <mxCell id="g85zR57vtpFId2s-BlCn-15" style="edgeStyle=orthogonalEdgeStyle;rounded=0;orthogonalLoop=1;jettySize=auto;html=1;" edge="1" parent="1" source="g85zR57vtpFId2s-BlCn-9">
          <mxGeometry relative="1" as="geometry">
            <mxPoint x="680" y="540" as="targetPoint" />
          </mxGeometry>
        </mxCell>
        <mxCell id="g85zR57vtpFId2s-BlCn-16" value="không" style="edgeLabel;html=1;align=center;verticalAlign=middle;resizable=0;points=[];" vertex="1" connectable="0" parent="g85zR57vtpFId2s-BlCn-15">
          <mxGeometry x="0.6599" y="2" relative="1" as="geometry">
            <mxPoint as="offset" />
          </mxGeometry>
        </mxCell>
        <mxCell id="g85zR57vtpFId2s-BlCn-9" value="thông tin hợp lệ?" style="rhombus;whiteSpace=wrap;html=1;" vertex="1" parent="1">
          <mxGeometry x="370" y="380" width="80" height="80" as="geometry" />
        </mxCell>
        <mxCell id="g85zR57vtpFId2s-BlCn-14" style="edgeStyle=orthogonalEdgeStyle;rounded=0;orthogonalLoop=1;jettySize=auto;html=1;exitX=0.5;exitY=1;exitDx=0;exitDy=0;" edge="1" parent="1" source="g85zR57vtpFId2s-BlCn-13" target="g85zR57vtpFId2s-BlCn-3">
          <mxGeometry relative="1" as="geometry">
            <Array as="points">
              <mxPoint x="410" y="650" />
              <mxPoint x="410" y="650" />
            </Array>
          </mxGeometry>
        </mxCell>
        <mxCell id="g85zR57vtpFId2s-BlCn-13" value="đăng kí tài khoản" style="rounded=1;whiteSpace=wrap;html=1;" vertex="1" parent="1">
          <mxGeometry x="350" y="540" width="120" height="60" as="geometry" />
        </mxCell>
        <mxCell id="g85zR57vtpFId2s-BlCn-18" style="edgeStyle=orthogonalEdgeStyle;rounded=0;orthogonalLoop=1;jettySize=auto;html=1;entryX=1;entryY=0.25;entryDx=0;entryDy=0;" edge="1" parent="1" source="g85zR57vtpFId2s-BlCn-17" target="g85zR57vtpFId2s-BlCn-5">
          <mxGeometry relative="1" as="geometry">
            <Array as="points">
              <mxPoint x="730" y="186" />
            </Array>
          </mxGeometry>
        </mxCell>
        <mxCell id="g85zR57vtpFId2s-BlCn-17" value="thông báo lỗi , yêu cầu nhâp lại" style="shape=parallelogram;perimeter=parallelogramPerimeter;whiteSpace=wrap;html=1;fixedSize=1;" vertex="1" parent="1">
          <mxGeometry x="610" y="540" width="120" height="60" as="geometry" />
        </mxCell>
      </root>
    </mxGraphModel>
  </diagram>
  <diagram id="DJLRn6FVqqyVFUJZ6rtk" name="Trang-4">
    <mxGraphModel dx="1042" dy="562" grid="1" gridSize="10" guides="1" tooltips="1" connect="1" arrows="1" fold="1" page="1" pageScale="1" pageWidth="827" pageHeight="1169" math="0" shadow="0">
      <root>
        <mxCell id="0" />
        <mxCell id="1" parent="0" />
        <mxCell id="mKykcqDxJSejfTDZUEFI-9" style="edgeStyle=orthogonalEdgeStyle;rounded=0;orthogonalLoop=1;jettySize=auto;html=1;" edge="1" parent="1" source="mKykcqDxJSejfTDZUEFI-1">
          <mxGeometry relative="1" as="geometry">
            <mxPoint x="410" y="170" as="targetPoint" />
          </mxGeometry>
        </mxCell>
        <mxCell id="mKykcqDxJSejfTDZUEFI-1" value="bắt đầu" style="ellipse;whiteSpace=wrap;html=1;" vertex="1" parent="1">
          <mxGeometry x="350" y="50" width="120" height="80" as="geometry" />
        </mxCell>
        <mxCell id="mKykcqDxJSejfTDZUEFI-2" value="kết thúc" style="ellipse;whiteSpace=wrap;html=1;" vertex="1" parent="1">
          <mxGeometry x="350" y="680" width="120" height="80" as="geometry" />
        </mxCell>
        <mxCell id="mKykcqDxJSejfTDZUEFI-13" style="edgeStyle=orthogonalEdgeStyle;rounded=0;orthogonalLoop=1;jettySize=auto;html=1;exitX=0.5;exitY=1;exitDx=0;exitDy=0;entryX=0.5;entryY=0;entryDx=0;entryDy=0;" edge="1" parent="1" source="mKykcqDxJSejfTDZUEFI-3" target="mKykcqDxJSejfTDZUEFI-8">
          <mxGeometry relative="1" as="geometry" />
        </mxCell>
        <mxCell id="mKykcqDxJSejfTDZUEFI-3" value="thực hiện và đánh dấu đã xong" style="rounded=1;whiteSpace=wrap;html=1;" vertex="1" parent="1">
          <mxGeometry x="350" y="390" width="120" height="60" as="geometry" />
        </mxCell>
        <mxCell id="mKykcqDxJSejfTDZUEFI-12" style="edgeStyle=orthogonalEdgeStyle;rounded=0;orthogonalLoop=1;jettySize=auto;html=1;entryX=0.5;entryY=0;entryDx=0;entryDy=0;" edge="1" parent="1" source="mKykcqDxJSejfTDZUEFI-4" target="mKykcqDxJSejfTDZUEFI-3">
          <mxGeometry relative="1" as="geometry" />
        </mxCell>
        <mxCell id="mKykcqDxJSejfTDZUEFI-4" value="chọn công việc cần làm trước" style="rounded=1;whiteSpace=wrap;html=1;" vertex="1" parent="1">
          <mxGeometry x="350" y="280" width="120" height="60" as="geometry" />
        </mxCell>
        <mxCell id="mKykcqDxJSejfTDZUEFI-10" style="edgeStyle=orthogonalEdgeStyle;rounded=0;orthogonalLoop=1;jettySize=auto;html=1;" edge="1" parent="1" source="mKykcqDxJSejfTDZUEFI-6">
          <mxGeometry relative="1" as="geometry">
            <mxPoint x="414" y="280" as="targetPoint" />
          </mxGeometry>
        </mxCell>
        <mxCell id="mKykcqDxJSejfTDZUEFI-6" value="liệt kê các công việc cần làm trong ngày" style="shape=parallelogram;perimeter=parallelogramPerimeter;whiteSpace=wrap;html=1;fixedSize=1;" vertex="1" parent="1">
          <mxGeometry x="341" y="170" width="146" height="70" as="geometry" />
        </mxCell>
        <mxCell id="mKykcqDxJSejfTDZUEFI-14" style="edgeStyle=orthogonalEdgeStyle;rounded=0;orthogonalLoop=1;jettySize=auto;html=1;entryX=0.5;entryY=0;entryDx=0;entryDy=0;" edge="1" parent="1" source="mKykcqDxJSejfTDZUEFI-8" target="mKykcqDxJSejfTDZUEFI-2">
          <mxGeometry relative="1" as="geometry">
            <mxPoint x="410" y="670" as="targetPoint" />
          </mxGeometry>
        </mxCell>
        <mxCell id="mKykcqDxJSejfTDZUEFI-15" value="không&amp;nbsp;" style="edgeLabel;html=1;align=center;verticalAlign=middle;resizable=0;points=[];" vertex="1" connectable="0" parent="mKykcqDxJSejfTDZUEFI-14">
          <mxGeometry x="-0.0062" y="-5" relative="1" as="geometry">
            <mxPoint x="-5" y="-4" as="offset" />
          </mxGeometry>
        </mxCell>
        <mxCell id="mKykcqDxJSejfTDZUEFI-18" style="edgeStyle=orthogonalEdgeStyle;rounded=0;orthogonalLoop=1;jettySize=auto;html=1;entryX=1;entryY=0.5;entryDx=0;entryDy=0;" edge="1" parent="1" source="mKykcqDxJSejfTDZUEFI-8" target="mKykcqDxJSejfTDZUEFI-4">
          <mxGeometry relative="1" as="geometry">
            <Array as="points">
              <mxPoint x="580" y="540" />
              <mxPoint x="580" y="310" />
            </Array>
          </mxGeometry>
        </mxCell>
        <mxCell id="mKykcqDxJSejfTDZUEFI-19" value="có" style="edgeLabel;html=1;align=center;verticalAlign=middle;resizable=0;points=[];" vertex="1" connectable="0" parent="mKykcqDxJSejfTDZUEFI-18">
          <mxGeometry x="-0.0148" relative="1" as="geometry">
            <mxPoint as="offset" />
          </mxGeometry>
        </mxCell>
        <mxCell id="mKykcqDxJSejfTDZUEFI-8" value="còn công việc nào chưa xong" style="rhombus;whiteSpace=wrap;html=1;" vertex="1" parent="1">
          <mxGeometry x="360" y="490" width="100" height="100" as="geometry" />
        </mxCell>
      </root>
    </mxGraphModel>
  </diagram>
  <diagram id="992ceHDSRfJ1WsUdnHk4" name="Trang-5">
    <mxGraphModel dx="1042" dy="562" grid="1" gridSize="10" guides="1" tooltips="1" connect="1" arrows="1" fold="1" page="1" pageScale="1" pageWidth="827" pageHeight="1169" math="0" shadow="0">
      <root>
        <mxCell id="0" />
        <mxCell id="1" parent="0" />
        <mxCell id="3KdlHoBTeObSUMEYLO5k-9" style="edgeStyle=orthogonalEdgeStyle;rounded=0;orthogonalLoop=1;jettySize=auto;html=1;entryX=0.5;entryY=0;entryDx=0;entryDy=0;" edge="1" parent="1" source="3KdlHoBTeObSUMEYLO5k-1" target="3KdlHoBTeObSUMEYLO5k-4">
          <mxGeometry relative="1" as="geometry" />
        </mxCell>
        <mxCell id="3KdlHoBTeObSUMEYLO5k-1" value="bắt đầu" style="ellipse;whiteSpace=wrap;html=1;" vertex="1" parent="1">
          <mxGeometry x="354" y="40" width="120" height="80" as="geometry" />
        </mxCell>
        <mxCell id="3KdlHoBTeObSUMEYLO5k-2" value="kết thúc" style="ellipse;whiteSpace=wrap;html=1;" vertex="1" parent="1">
          <mxGeometry x="350" y="800" width="120" height="80" as="geometry" />
        </mxCell>
        <mxCell id="3KdlHoBTeObSUMEYLO5k-22" style="edgeStyle=orthogonalEdgeStyle;rounded=0;orthogonalLoop=1;jettySize=auto;html=1;" edge="1" parent="1" source="3KdlHoBTeObSUMEYLO5k-3">
          <mxGeometry relative="1" as="geometry">
            <mxPoint x="410" y="800" as="targetPoint" />
          </mxGeometry>
        </mxCell>
        <mxCell id="3KdlHoBTeObSUMEYLO5k-3" value="in ra max" style="shape=parallelogram;perimeter=parallelogramPerimeter;whiteSpace=wrap;html=1;fixedSize=1;" vertex="1" parent="1">
          <mxGeometry x="350" y="690" width="120" height="60" as="geometry" />
        </mxCell>
        <mxCell id="3KdlHoBTeObSUMEYLO5k-11" style="edgeStyle=orthogonalEdgeStyle;rounded=0;orthogonalLoop=1;jettySize=auto;html=1;" edge="1" parent="1" source="3KdlHoBTeObSUMEYLO5k-4">
          <mxGeometry relative="1" as="geometry">
            <mxPoint x="414" y="270" as="targetPoint" />
          </mxGeometry>
        </mxCell>
        <mxCell id="3KdlHoBTeObSUMEYLO5k-4" value="Nhập 3 số nguyên A B C" style="shape=parallelogram;perimeter=parallelogramPerimeter;whiteSpace=wrap;html=1;fixedSize=1;" vertex="1" parent="1">
          <mxGeometry x="354" y="170" width="120" height="60" as="geometry" />
        </mxCell>
        <mxCell id="3KdlHoBTeObSUMEYLO5k-12" style="edgeStyle=orthogonalEdgeStyle;rounded=0;orthogonalLoop=1;jettySize=auto;html=1;entryX=0.5;entryY=0;entryDx=0;entryDy=0;" edge="1" parent="1" source="3KdlHoBTeObSUMEYLO5k-5" target="3KdlHoBTeObSUMEYLO5k-8">
          <mxGeometry relative="1" as="geometry" />
        </mxCell>
        <mxCell id="3KdlHoBTeObSUMEYLO5k-5" value="Giả sử Max = A" style="rounded=1;whiteSpace=wrap;html=1;" vertex="1" parent="1">
          <mxGeometry x="354" y="270" width="120" height="60" as="geometry" />
        </mxCell>
        <mxCell id="3KdlHoBTeObSUMEYLO5k-13" style="edgeStyle=orthogonalEdgeStyle;rounded=0;orthogonalLoop=1;jettySize=auto;html=1;" edge="1" parent="1" source="3KdlHoBTeObSUMEYLO5k-8">
          <mxGeometry relative="1" as="geometry">
            <mxPoint x="414" y="540" as="targetPoint" />
          </mxGeometry>
        </mxCell>
        <mxCell id="3KdlHoBTeObSUMEYLO5k-14" value="không" style="edgeLabel;html=1;align=center;verticalAlign=middle;resizable=0;points=[];" vertex="1" connectable="0" parent="3KdlHoBTeObSUMEYLO5k-13">
          <mxGeometry x="-0.1922" y="-1" relative="1" as="geometry">
            <mxPoint as="offset" />
          </mxGeometry>
        </mxCell>
        <mxCell id="3KdlHoBTeObSUMEYLO5k-15" style="edgeStyle=orthogonalEdgeStyle;rounded=0;orthogonalLoop=1;jettySize=auto;html=1;exitX=1;exitY=0.5;exitDx=0;exitDy=0;" edge="1" parent="1" source="3KdlHoBTeObSUMEYLO5k-8">
          <mxGeometry relative="1" as="geometry">
            <mxPoint x="520" y="480" as="targetPoint" />
          </mxGeometry>
        </mxCell>
        <mxCell id="3KdlHoBTeObSUMEYLO5k-16" value="có" style="edgeLabel;html=1;align=center;verticalAlign=middle;resizable=0;points=[];" vertex="1" connectable="0" parent="3KdlHoBTeObSUMEYLO5k-15">
          <mxGeometry x="0.5159" y="2" relative="1" as="geometry">
            <mxPoint as="offset" />
          </mxGeometry>
        </mxCell>
        <mxCell id="3KdlHoBTeObSUMEYLO5k-8" value="&#xa;B &amp;gt; Max ?&#xa;&#xa;" style="rhombus;whiteSpace=wrap;html=1;" vertex="1" parent="1">
          <mxGeometry x="374" y="380" width="80" height="80" as="geometry" />
        </mxCell>
        <mxCell id="3KdlHoBTeObSUMEYLO5k-17" value="max b" style="rounded=1;whiteSpace=wrap;html=1;" vertex="1" parent="1">
          <mxGeometry x="470" y="480" width="120" height="60" as="geometry" />
        </mxCell>
        <mxCell id="3KdlHoBTeObSUMEYLO5k-19" style="edgeStyle=orthogonalEdgeStyle;rounded=0;orthogonalLoop=1;jettySize=auto;html=1;" edge="1" parent="1" source="3KdlHoBTeObSUMEYLO5k-18">
          <mxGeometry relative="1" as="geometry">
            <mxPoint x="414" y="690" as="targetPoint" />
          </mxGeometry>
        </mxCell>
        <mxCell id="3KdlHoBTeObSUMEYLO5k-20" value="không" style="edgeLabel;html=1;align=center;verticalAlign=middle;resizable=0;points=[];" vertex="1" connectable="0" parent="3KdlHoBTeObSUMEYLO5k-19">
          <mxGeometry x="0.0176" y="2" relative="1" as="geometry">
            <mxPoint as="offset" />
          </mxGeometry>
        </mxCell>
        <mxCell id="3KdlHoBTeObSUMEYLO5k-23" style="edgeStyle=orthogonalEdgeStyle;rounded=0;orthogonalLoop=1;jettySize=auto;html=1;" edge="1" parent="1" source="3KdlHoBTeObSUMEYLO5k-18">
          <mxGeometry relative="1" as="geometry">
            <mxPoint x="540" y="640" as="targetPoint" />
          </mxGeometry>
        </mxCell>
        <mxCell id="3KdlHoBTeObSUMEYLO5k-26" value="có" style="edgeLabel;html=1;align=center;verticalAlign=middle;resizable=0;points=[];" vertex="1" connectable="0" parent="3KdlHoBTeObSUMEYLO5k-23">
          <mxGeometry x="0.2" relative="1" as="geometry">
            <mxPoint as="offset" />
          </mxGeometry>
        </mxCell>
        <mxCell id="3KdlHoBTeObSUMEYLO5k-18" value="&amp;nbsp;C &amp;gt; Max ?" style="rhombus;whiteSpace=wrap;html=1;" vertex="1" parent="1">
          <mxGeometry x="374" y="540" width="80" height="80" as="geometry" />
        </mxCell>
        <mxCell id="3KdlHoBTeObSUMEYLO5k-24" value="max c" style="rounded=1;whiteSpace=wrap;html=1;" vertex="1" parent="1">
          <mxGeometry x="490" y="640" width="120" height="60" as="geometry" />
        </mxCell>
        <mxCell id="3KdlHoBTeObSUMEYLO5k-30" style="edgeStyle=orthogonalEdgeStyle;rounded=0;orthogonalLoop=1;jettySize=auto;html=1;entryX=0.68;entryY=-0.017;entryDx=0;entryDy=0;entryPerimeter=0;" edge="1" parent="1" source="3KdlHoBTeObSUMEYLO5k-24" target="3KdlHoBTeObSUMEYLO5k-3">
          <mxGeometry relative="1" as="geometry" />
        </mxCell>
      </root>
    </mxGraphModel>
  </diagram>
  <diagram id="nrJ9_9ellQI1BnRy4PRf" name="Trang-6">
    <mxGraphModel dx="1042" dy="562" grid="1" gridSize="10" guides="1" tooltips="1" connect="1" arrows="1" fold="1" page="1" pageScale="1" pageWidth="827" pageHeight="1169" math="0" shadow="0">
      <root>
        <mxCell id="0" />
        <mxCell id="1" parent="0" />
        <mxCell id="x7-K1HlS9oV8sWy9yz_z-9" style="edgeStyle=orthogonalEdgeStyle;rounded=0;orthogonalLoop=1;jettySize=auto;html=1;" edge="1" parent="1" source="x7-K1HlS9oV8sWy9yz_z-2" target="x7-K1HlS9oV8sWy9yz_z-3">
          <mxGeometry relative="1" as="geometry" />
        </mxCell>
        <mxCell id="x7-K1HlS9oV8sWy9yz_z-2" value="bắt đầu" style="ellipse;whiteSpace=wrap;html=1;" vertex="1" parent="1">
          <mxGeometry x="380" y="20" width="120" height="80" as="geometry" />
        </mxCell>
        <mxCell id="x7-K1HlS9oV8sWy9yz_z-10" style="edgeStyle=orthogonalEdgeStyle;rounded=0;orthogonalLoop=1;jettySize=auto;html=1;entryX=0.5;entryY=0;entryDx=0;entryDy=0;" edge="1" parent="1" source="x7-K1HlS9oV8sWy9yz_z-3" target="x7-K1HlS9oV8sWy9yz_z-6">
          <mxGeometry relative="1" as="geometry" />
        </mxCell>
        <mxCell id="x7-K1HlS9oV8sWy9yz_z-3" value="Nhập số nguyên n" style="shape=parallelogram;perimeter=parallelogramPerimeter;whiteSpace=wrap;html=1;fixedSize=1;" vertex="1" parent="1">
          <mxGeometry x="380" y="160" width="120" height="60" as="geometry" />
        </mxCell>
        <mxCell id="x7-K1HlS9oV8sWy9yz_z-18" style="edgeStyle=orthogonalEdgeStyle;rounded=0;orthogonalLoop=1;jettySize=auto;html=1;entryX=1;entryY=0.5;entryDx=0;entryDy=0;" edge="1" parent="1" source="x7-K1HlS9oV8sWy9yz_z-4" target="x7-K1HlS9oV8sWy9yz_z-17">
          <mxGeometry relative="1" as="geometry">
            <Array as="points">
              <mxPoint x="580" y="670" />
            </Array>
          </mxGeometry>
        </mxCell>
        <mxCell id="x7-K1HlS9oV8sWy9yz_z-4" value="in ra lẻ" style="shape=parallelogram;perimeter=parallelogramPerimeter;whiteSpace=wrap;html=1;fixedSize=1;" vertex="1" parent="1">
          <mxGeometry x="520" y="360" width="120" height="60" as="geometry" />
        </mxCell>
        <mxCell id="x7-K1HlS9oV8sWy9yz_z-5" value="" style="rhombus;whiteSpace=wrap;html=1;" vertex="1" parent="1">
          <mxGeometry x="720" y="430" width="80" height="80" as="geometry" />
        </mxCell>
        <mxCell id="x7-K1HlS9oV8sWy9yz_z-11" style="edgeStyle=orthogonalEdgeStyle;rounded=0;orthogonalLoop=1;jettySize=auto;html=1;" edge="1" parent="1" source="x7-K1HlS9oV8sWy9yz_z-6">
          <mxGeometry relative="1" as="geometry">
            <mxPoint x="440" y="440" as="targetPoint" />
          </mxGeometry>
        </mxCell>
        <mxCell id="x7-K1HlS9oV8sWy9yz_z-12" value="có" style="edgeLabel;html=1;align=center;verticalAlign=middle;resizable=0;points=[];" vertex="1" connectable="0" parent="x7-K1HlS9oV8sWy9yz_z-11">
          <mxGeometry x="0.0055" y="1" relative="1" as="geometry">
            <mxPoint y="-1" as="offset" />
          </mxGeometry>
        </mxCell>
        <mxCell id="x7-K1HlS9oV8sWy9yz_z-14" style="edgeStyle=orthogonalEdgeStyle;rounded=0;orthogonalLoop=1;jettySize=auto;html=1;" edge="1" parent="1" source="x7-K1HlS9oV8sWy9yz_z-6">
          <mxGeometry relative="1" as="geometry">
            <mxPoint x="580" y="360" as="targetPoint" />
          </mxGeometry>
        </mxCell>
        <mxCell id="x7-K1HlS9oV8sWy9yz_z-15" value="không" style="edgeLabel;html=1;align=center;verticalAlign=middle;resizable=0;points=[];" vertex="1" connectable="0" parent="x7-K1HlS9oV8sWy9yz_z-14">
          <mxGeometry x="0.3128" y="3" relative="1" as="geometry">
            <mxPoint as="offset" />
          </mxGeometry>
        </mxCell>
        <mxCell id="x7-K1HlS9oV8sWy9yz_z-6" value="n chia hết cho 2" style="rhombus;whiteSpace=wrap;html=1;" vertex="1" parent="1">
          <mxGeometry x="400" y="260" width="80" height="90" as="geometry" />
        </mxCell>
        <mxCell id="x7-K1HlS9oV8sWy9yz_z-7" value="" style="rounded=1;whiteSpace=wrap;html=1;" vertex="1" parent="1">
          <mxGeometry x="720" y="300" width="120" height="60" as="geometry" />
        </mxCell>
        <mxCell id="x7-K1HlS9oV8sWy9yz_z-8" value="" style="rounded=1;whiteSpace=wrap;html=1;" vertex="1" parent="1">
          <mxGeometry x="810" y="180" width="120" height="60" as="geometry" />
        </mxCell>
        <mxCell id="x7-K1HlS9oV8sWy9yz_z-16" style="edgeStyle=orthogonalEdgeStyle;rounded=0;orthogonalLoop=1;jettySize=auto;html=1;" edge="1" parent="1" source="x7-K1HlS9oV8sWy9yz_z-13">
          <mxGeometry relative="1" as="geometry">
            <mxPoint x="440" y="630" as="targetPoint" />
          </mxGeometry>
        </mxCell>
        <mxCell id="x7-K1HlS9oV8sWy9yz_z-13" value="in ra chẵn" style="shape=parallelogram;perimeter=parallelogramPerimeter;whiteSpace=wrap;html=1;fixedSize=1;" vertex="1" parent="1">
          <mxGeometry x="380" y="440" width="120" height="60" as="geometry" />
        </mxCell>
        <mxCell id="x7-K1HlS9oV8sWy9yz_z-17" value="bắt đầu" style="ellipse;whiteSpace=wrap;html=1;" vertex="1" parent="1">
          <mxGeometry x="380" y="630" width="120" height="80" as="geometry" />
        </mxCell>
      </root>
    </mxGraphModel>
  </diagram>
  <diagram id="vIhG1QYaliwRhr2VTJV9" name="Trang-7">
    <mxGraphModel dx="1042" dy="562" grid="1" gridSize="10" guides="1" tooltips="1" connect="1" arrows="1" fold="1" page="1" pageScale="1" pageWidth="827" pageHeight="1169" math="0" shadow="0">
      <root>
        <mxCell id="0" />
        <mxCell id="1" parent="0" />
        <mxCell id="5nKcOtwkusx5eiwtmy97-9" style="edgeStyle=orthogonalEdgeStyle;rounded=0;orthogonalLoop=1;jettySize=auto;html=1;entryX=0.5;entryY=0;entryDx=0;entryDy=0;" edge="1" parent="1" source="5nKcOtwkusx5eiwtmy97-1" target="5nKcOtwkusx5eiwtmy97-4">
          <mxGeometry relative="1" as="geometry" />
        </mxCell>
        <mxCell id="5nKcOtwkusx5eiwtmy97-1" value="bắt đầu" style="ellipse;whiteSpace=wrap;html=1;" vertex="1" parent="1">
          <mxGeometry x="350" y="50" width="120" height="80" as="geometry" />
        </mxCell>
        <mxCell id="5nKcOtwkusx5eiwtmy97-2" value="kết thúc" style="ellipse;whiteSpace=wrap;html=1;" vertex="1" parent="1">
          <mxGeometry x="354" y="870" width="120" height="80" as="geometry" />
        </mxCell>
        <mxCell id="5nKcOtwkusx5eiwtmy97-10" style="edgeStyle=orthogonalEdgeStyle;rounded=0;orthogonalLoop=1;jettySize=auto;html=1;" edge="1" parent="1" source="5nKcOtwkusx5eiwtmy97-4">
          <mxGeometry relative="1" as="geometry">
            <mxPoint x="410" y="290" as="targetPoint" />
          </mxGeometry>
        </mxCell>
        <mxCell id="5nKcOtwkusx5eiwtmy97-4" value="nhập n" style="shape=parallelogram;perimeter=parallelogramPerimeter;whiteSpace=wrap;html=1;fixedSize=1;" vertex="1" parent="1">
          <mxGeometry x="350" y="180" width="120" height="60" as="geometry" />
        </mxCell>
        <mxCell id="5nKcOtwkusx5eiwtmy97-12" style="edgeStyle=orthogonalEdgeStyle;rounded=0;orthogonalLoop=1;jettySize=auto;html=1;entryX=0.5;entryY=0;entryDx=0;entryDy=0;" edge="1" parent="1" source="5nKcOtwkusx5eiwtmy97-6" target="5nKcOtwkusx5eiwtmy97-2">
          <mxGeometry relative="1" as="geometry">
            <mxPoint x="414" y="680" as="targetPoint" />
          </mxGeometry>
        </mxCell>
        <mxCell id="5nKcOtwkusx5eiwtmy97-13" value="không" style="edgeLabel;html=1;align=center;verticalAlign=middle;resizable=0;points=[];" vertex="1" connectable="0" parent="5nKcOtwkusx5eiwtmy97-12">
          <mxGeometry x="0.176" y="2" relative="1" as="geometry">
            <mxPoint as="offset" />
          </mxGeometry>
        </mxCell>
        <mxCell id="5nKcOtwkusx5eiwtmy97-14" style="edgeStyle=orthogonalEdgeStyle;rounded=0;orthogonalLoop=1;jettySize=auto;html=1;" edge="1" parent="1" source="5nKcOtwkusx5eiwtmy97-6">
          <mxGeometry relative="1" as="geometry">
            <mxPoint x="630" y="560" as="targetPoint" />
          </mxGeometry>
        </mxCell>
        <mxCell id="5nKcOtwkusx5eiwtmy97-15" value="có" style="edgeLabel;html=1;align=center;verticalAlign=middle;resizable=0;points=[];" vertex="1" connectable="0" parent="5nKcOtwkusx5eiwtmy97-14">
          <mxGeometry x="0.1696" y="3" relative="1" as="geometry">
            <mxPoint as="offset" />
          </mxGeometry>
        </mxCell>
        <mxCell id="5nKcOtwkusx5eiwtmy97-6" value="i ≤ N ?" style="rhombus;whiteSpace=wrap;html=1;" vertex="1" parent="1">
          <mxGeometry x="374" y="400" width="80" height="80" as="geometry" />
        </mxCell>
        <mxCell id="5nKcOtwkusx5eiwtmy97-18" style="edgeStyle=orthogonalEdgeStyle;rounded=0;orthogonalLoop=1;jettySize=auto;html=1;" edge="1" parent="1" source="5nKcOtwkusx5eiwtmy97-7">
          <mxGeometry relative="1" as="geometry">
            <mxPoint x="630" y="710" as="targetPoint" />
          </mxGeometry>
        </mxCell>
        <mxCell id="5nKcOtwkusx5eiwtmy97-7" value="s = s + i" style="rounded=1;whiteSpace=wrap;html=1;" vertex="1" parent="1">
          <mxGeometry x="570" y="555" width="120" height="60" as="geometry" />
        </mxCell>
        <mxCell id="5nKcOtwkusx5eiwtmy97-11" style="edgeStyle=orthogonalEdgeStyle;rounded=0;orthogonalLoop=1;jettySize=auto;html=1;" edge="1" parent="1" source="5nKcOtwkusx5eiwtmy97-8">
          <mxGeometry relative="1" as="geometry">
            <mxPoint x="414" y="400" as="targetPoint" />
          </mxGeometry>
        </mxCell>
        <mxCell id="5nKcOtwkusx5eiwtmy97-8" value="s = 0, i =1" style="rounded=1;whiteSpace=wrap;html=1;" vertex="1" parent="1">
          <mxGeometry x="354" y="290" width="120" height="60" as="geometry" />
        </mxCell>
        <mxCell id="5nKcOtwkusx5eiwtmy97-21" style="edgeStyle=orthogonalEdgeStyle;rounded=0;orthogonalLoop=1;jettySize=auto;html=1;entryX=1;entryY=0.5;entryDx=0;entryDy=0;" edge="1" parent="1" source="5nKcOtwkusx5eiwtmy97-20" target="5nKcOtwkusx5eiwtmy97-8">
          <mxGeometry relative="1" as="geometry">
            <Array as="points">
              <mxPoint x="760" y="740" />
              <mxPoint x="760" y="320" />
            </Array>
          </mxGeometry>
        </mxCell>
        <mxCell id="5nKcOtwkusx5eiwtmy97-20" value="i = i + 1" style="rounded=1;whiteSpace=wrap;html=1;" vertex="1" parent="1">
          <mxGeometry x="570" y="710" width="120" height="60" as="geometry" />
        </mxCell>
      </root>
    </mxGraphModel>
  </diagram>
</mxfile>
